<svg id="Capa_1" enable-background="new 0 0 512 512" height="512" viewBox="0 0 512 512" width="512" xmlns="http://www.w3.org/2000/svg"><g><path d="m336.558 124.919c-8.218-47.251-61.191-106.788-76.45-123.132-2.225-2.384-5.989-2.384-8.214 0-15.259 16.343-68.233 75.88-76.45 123.132 0 0-12.818 41.946 18.083 76.564 33.088 37.068 91.862 37.068 124.95 0 30.899-34.617 18.081-76.564 18.081-76.564z" fill="#b3dafe"/><path d="m318.477 201.487c-10.314 11.56-23.13 19.503-36.874 23.862 6.398-4.028 12.353-9.015 17.638-14.939 30.898-34.618 18.082-76.561 18.082-76.561-7.964-45.827-58.036-103.215-74.964-121.533 3.884-4.41 7.16-7.995 9.53-10.53 2.225-2.38 5.996-2.38 8.222 0 15.259 16.34 68.226 75.881 76.448 123.13 0 0 12.816 41.953-18.082 76.571z" fill="#8ac9fe"/><g><path d="m492.963 348.82s-236.957 0-236.973 0h-236.957s-5.345 124.723 178.18 158.577c39.882 4.833 77.893 7.319 117.575-.001 183.52-33.854 178.175-158.576 178.175-158.576z" fill="#b3dafe"/><path d="m314.788 507.397c-39.677 7.315-77.694 4.832-117.577 0-2.009-.371-3.987-.752-5.945-1.144 32.434 3.112 64.022 3.74 96.734-2.287 165.383-30.507 177.386-134.824 178.148-155.142h26.819s5.337 124.718-178.179 158.573z" fill="#8ac9fe"/><ellipse cx="256.006" cy="348.82" fill="#eaf6ff" rx="236.973" ry="62.361"/><path d="m492.977 348.824c0 34.432-106.1 62.353-236.967 62.353-57.624 0-110.447-5.409-151.525-14.414 36.514 6.048 79.755 9.551 126.108 9.551 130.878 0 236.978-27.921 236.978-62.364 0-19.225-33.062-36.421-85.051-47.857 66.381 11.046 110.457 30.529 110.457 52.731z" fill="#d8ecfe"/></g></g></svg>